<svg xmlns="http://www.w3.org/2000/svg" width="860" height="235" viewBox="0 0 860 235"><rect width="860" height="235" fill="#0d1825"/><defs><marker id="a" markerWidth="8" markerHeight="8" refX="7" refY="4" orient="auto"><path d="M0,0 L8,4 L0,8 Z" fill="#f2a65a"/></marker></defs><text x="430" y="42" text-anchor="middle" fill="#fff" font-size="22" font-family="Arial" font-weight="700">System design cho AI/ML</text><text x="430" y="67" text-anchor="middle" fill="#91a4b8" font-size="13" font-family="Arial">System Design — mental model</text><g><rect x="35" y="95" width="165" height="72" rx="12" fill="#123f3b" stroke="#69d6c0"/><text x="117" y="126" text-anchor="middle" fill="#eef7f5" font-size="14" font-family="Arial">Traffic + SLO</text><text x="117" y="148" text-anchor="middle" fill="#9ccbc2" font-size="11" font-family="Arial">stage 1</text></g><g><rect x="240" y="95" width="165" height="72" rx="12" fill="#17334a" stroke="#69d6c0"/><text x="322" y="126" text-anchor="middle" fill="#eef7f5" font-size="14" font-family="Arial">Routing / cache</text><text x="322" y="148" text-anchor="middle" fill="#9ccbc2" font-size="11" font-family="Arial">stage 2</text></g><g><rect x="445" y="95" width="165" height="72" rx="12" fill="#123f3b" stroke="#69d6c0"/><text x="527" y="126" text-anchor="middle" fill="#eef7f5" font-size="14" font-family="Arial">Services + queues</text><text x="527" y="148" text-anchor="middle" fill="#9ccbc2" font-size="11" font-family="Arial">stage 3</text></g><g><rect x="650" y="95" width="165" height="72" rx="12" fill="#17334a" stroke="#69d6c0"/><text x="732" y="126" text-anchor="middle" fill="#eef7f5" font-size="14" font-family="Arial">Storage + observability</text><text x="732" y="148" text-anchor="middle" fill="#9ccbc2" font-size="11" font-family="Arial">stage 4</text></g><path d="M 200 131 L 235 131" stroke="#f2a65a" stroke-width="3" marker-end="url(#a)"/><path d="M 405 131 L 440 131" stroke="#f2a65a" stroke-width="3" marker-end="url(#a)"/><path d="M 610 131 L 645 131" stroke="#f2a65a" stroke-width="3" marker-end="url(#a)"/><text x="430" y="208" text-anchor="middle" fill="#91a4b8" font-size="12" font-family="Arial">Theo dõi dữ liệu, trạng thái và failure qua từng ranh giới</text></svg>